<mxfile host="Electron" modified="2025-03-05T15:07:25.323Z" agent="Mozilla/5.0 (Windows NT 10.0; Win64; x64) AppleWebKit/537.36 (KHTML, like Gecko) draw.io/24.6.4 Chrome/124.0.6367.207 Electron/30.0.6 Safari/537.36" etag="iKE8AHjDQr0jbAa1uOY5" version="24.6.4" type="device">
  <diagram id="gCp7LwOf0pteCd_QEsU_" name="第 2 页">
    <mxGraphModel dx="1034" dy="565" grid="1" gridSize="10" guides="1" tooltips="1" connect="1" arrows="1" fold="1" page="1" pageScale="1" pageWidth="827" pageHeight="1169" math="0" shadow="0">
      <root>
        <mxCell id="0" />
        <mxCell id="1" parent="0" />
        <mxCell id="Xuf36Zth4zG1dXNgR3IM-65" value="" style="rounded=1;whiteSpace=wrap;html=1;fillColor=none;strokeColor=#999999;movable=1;resizable=1;rotatable=1;deletable=1;editable=1;locked=0;connectable=1;strokeWidth=2;" parent="1" vertex="1">
          <mxGeometry x="173.83870967741936" y="181.61951219512196" width="245.63918757467144" height="431.2" as="geometry" />
        </mxCell>
        <mxCell id="Xuf36Zth4zG1dXNgR3IM-66" value="" style="rounded=0;whiteSpace=wrap;html=1;fillColor=none;fontStyle=1" parent="1" vertex="1">
          <mxGeometry x="121" y="102" width="330" height="648" as="geometry" />
        </mxCell>
        <mxCell id="WFy3IM2rzasIuJmFbr-y-2" value="" style="rounded=0;whiteSpace=wrap;html=1;fillColor=none;" parent="1" vertex="1">
          <mxGeometry x="457" y="400" width="840" height="350" as="geometry" />
        </mxCell>
        <mxCell id="WFy3IM2rzasIuJmFbr-y-24" value="" style="rounded=0;whiteSpace=wrap;html=1;fillColor=none;" parent="1" vertex="1">
          <mxGeometry x="457" y="101.5" width="840" height="290" as="geometry" />
        </mxCell>
        <mxCell id="--1Hs2VlBdWaXlPGqsg5-21" style="edgeStyle=orthogonalEdgeStyle;rounded=0;orthogonalLoop=1;jettySize=auto;html=1;exitX=1;exitY=0.5;exitDx=0;exitDy=0;exitPerimeter=0;entryX=0.5;entryY=1;entryDx=0;entryDy=0;strokeWidth=2;" parent="1" source="--1Hs2VlBdWaXlPGqsg5-1" target="--1Hs2VlBdWaXlPGqsg5-16" edge="1">
          <mxGeometry relative="1" as="geometry" />
        </mxCell>
        <mxCell id="--1Hs2VlBdWaXlPGqsg5-1" value="" style="shape=cylinder3;whiteSpace=wrap;html=1;boundedLbl=1;backgroundOutline=1;size=15;strokeColor=#000000;fillColor=#DDEAFF;" parent="1" vertex="1">
          <mxGeometry x="464" y="258" width="140" height="120" as="geometry" />
        </mxCell>
        <mxCell id="--1Hs2VlBdWaXlPGqsg5-18" style="edgeStyle=orthogonalEdgeStyle;rounded=0;orthogonalLoop=1;jettySize=auto;html=1;exitX=1;exitY=0.5;exitDx=0;exitDy=0;exitPerimeter=0;entryX=0.5;entryY=1;entryDx=0;entryDy=0;strokeWidth=2;" parent="1" source="--1Hs2VlBdWaXlPGqsg5-2" target="--1Hs2VlBdWaXlPGqsg5-16" edge="1">
          <mxGeometry relative="1" as="geometry" />
        </mxCell>
        <mxCell id="--1Hs2VlBdWaXlPGqsg5-2" value="" style="shape=cylinder3;whiteSpace=wrap;html=1;boundedLbl=1;backgroundOutline=1;size=15;strokeColor=#000000;fillColor=#DDEAFF;" parent="1" vertex="1">
          <mxGeometry x="464" y="111.5" width="140" height="116.5" as="geometry" />
        </mxCell>
        <mxCell id="--1Hs2VlBdWaXlPGqsg5-10" value="&lt;font face=&quot;Times New Roman&quot; style=&quot;font-size: 16px;&quot;&gt;CPP Sequences&lt;/font&gt;&lt;div style=&quot;font-size: 16px;&quot;&gt;&lt;font face=&quot;Times New Roman&quot; style=&quot;font-size: 16px;&quot;&gt;&amp;nbsp;&lt;/font&gt;&lt;span style=&quot;font-family: &amp;quot;Times New Roman&amp;quot;; background-color: initial; font-size: 16px;&quot;&gt;(1150)&lt;/span&gt;&lt;/div&gt;" style="text;html=1;align=center;verticalAlign=middle;whiteSpace=wrap;rounded=0;fontSize=16;" parent="1" vertex="1">
          <mxGeometry x="470" y="338" width="130" height="30.5" as="geometry" />
        </mxCell>
        <mxCell id="--1Hs2VlBdWaXlPGqsg5-12" value="&lt;font style=&quot;font-size: 20px;&quot; face=&quot;Times New Roman&quot;&gt;&lt;b style=&quot;font-size: 20px;&quot;&gt;Uniprot&lt;/b&gt;&lt;/font&gt;" style="text;html=1;align=center;verticalAlign=middle;whiteSpace=wrap;rounded=0;fontSize=20;" parent="1" vertex="1">
          <mxGeometry x="479" y="148" width="110" height="30" as="geometry" />
        </mxCell>
        <mxCell id="--1Hs2VlBdWaXlPGqsg5-13" value="&lt;font style=&quot;font-size: 20px;&quot; face=&quot;Times New Roman&quot;&gt;&lt;b style=&quot;font-size: 20px;&quot;&gt;CPPSite2.0&lt;/b&gt;&lt;/font&gt;" style="text;html=1;align=center;verticalAlign=middle;whiteSpace=wrap;rounded=0;fontSize=20;" parent="1" vertex="1">
          <mxGeometry x="479" y="296.5" width="110" height="30" as="geometry" />
        </mxCell>
        <mxCell id="--1Hs2VlBdWaXlPGqsg5-30" style="edgeStyle=orthogonalEdgeStyle;rounded=0;orthogonalLoop=1;jettySize=auto;html=1;entryX=0;entryY=0.5;entryDx=0;entryDy=0;strokeWidth=2;" parent="1" source="--1Hs2VlBdWaXlPGqsg5-15" target="--1Hs2VlBdWaXlPGqsg5-23" edge="1">
          <mxGeometry relative="1" as="geometry" />
        </mxCell>
        <mxCell id="--1Hs2VlBdWaXlPGqsg5-31" style="edgeStyle=orthogonalEdgeStyle;rounded=0;orthogonalLoop=1;jettySize=auto;html=1;entryX=0;entryY=0.5;entryDx=0;entryDy=0;strokeWidth=2;" parent="1" source="--1Hs2VlBdWaXlPGqsg5-15" target="--1Hs2VlBdWaXlPGqsg5-24" edge="1">
          <mxGeometry relative="1" as="geometry" />
        </mxCell>
        <mxCell id="--1Hs2VlBdWaXlPGqsg5-15" value="" style="rounded=1;whiteSpace=wrap;html=1;rotation=90;strokeColor=default;fillColor=#C9B6C2;" parent="1" vertex="1">
          <mxGeometry x="601.5" y="225.5" width="190" height="45" as="geometry" />
        </mxCell>
        <mxCell id="--1Hs2VlBdWaXlPGqsg5-26" style="edgeStyle=orthogonalEdgeStyle;rounded=0;orthogonalLoop=1;jettySize=auto;html=1;entryX=0;entryY=0.5;entryDx=0;entryDy=0;strokeWidth=2;" parent="1" target="--1Hs2VlBdWaXlPGqsg5-22" edge="1">
          <mxGeometry relative="1" as="geometry">
            <mxPoint x="719" y="248" as="sourcePoint" />
          </mxGeometry>
        </mxCell>
        <mxCell id="--1Hs2VlBdWaXlPGqsg5-16" value="&lt;font style=&quot;font-size: 20px;&quot; face=&quot;Times New Roman&quot;&gt;&lt;b style=&quot;font-size: 20px;&quot;&gt;Embedding&lt;/b&gt;&lt;/font&gt;" style="text;html=1;align=center;verticalAlign=middle;whiteSpace=wrap;rounded=0;rotation=90;fontSize=20;" parent="1" vertex="1">
          <mxGeometry x="626.5" y="228" width="140" height="40" as="geometry" />
        </mxCell>
        <mxCell id="--1Hs2VlBdWaXlPGqsg5-22" value="&lt;span style=&quot;text-align: left; font-size: 20px;&quot;&gt;&lt;font style=&quot;font-size: 20px;&quot; face=&quot;Times New Roman&quot;&gt;&lt;b style=&quot;font-size: 20px;&quot;&gt;ProtBert&lt;/b&gt;&lt;/font&gt;&lt;/span&gt;" style="rounded=1;whiteSpace=wrap;html=1;rotation=0;strokeColor=default;fillColor=#D5E8D4;fontSize=20;" parent="1" vertex="1">
          <mxGeometry x="779" y="168" width="190" height="45" as="geometry" />
        </mxCell>
        <mxCell id="--1Hs2VlBdWaXlPGqsg5-23" value="&lt;span style=&quot;text-align: left; font-size: 20px;&quot;&gt;&lt;font face=&quot;Times New Roman&quot; style=&quot;font-size: 20px;&quot;&gt;&lt;b style=&quot;font-size: 20px;&quot;&gt;ProtBertBFD&lt;/b&gt;&lt;/font&gt;&lt;/span&gt;" style="rounded=1;whiteSpace=wrap;html=1;rotation=0;strokeColor=default;fillColor=#9AC7BF;fontSize=20;" parent="1" vertex="1">
          <mxGeometry x="779" y="226" width="190" height="45" as="geometry" />
        </mxCell>
        <mxCell id="--1Hs2VlBdWaXlPGqsg5-24" value="&lt;span style=&quot;font-family: &amp;quot;Times New Roman&amp;quot;; text-align: left; font-size: 20px;&quot;&gt;&lt;font style=&quot;font-size: 20px;&quot;&gt;&lt;b style=&quot;font-size: 20px;&quot;&gt;ProtElectraBFD&lt;/b&gt;&lt;/font&gt;&lt;/span&gt;" style="rounded=1;whiteSpace=wrap;html=1;rotation=0;strokeColor=default;fillColor=#67AB9F;fontSize=20;" parent="1" vertex="1">
          <mxGeometry x="779" y="283" width="190" height="45" as="geometry" />
        </mxCell>
        <mxCell id="-tW9xtRan8AISd-HXbH--4" value="Out" style="ellipse;whiteSpace=wrap;html=1;aspect=fixed;fillColor=#7C608A;fontSize=20;fontFamily=Times New Roman;" parent="1" vertex="1">
          <mxGeometry x="1238" y="223" width="53" height="53" as="geometry" />
        </mxCell>
        <mxCell id="-tW9xtRan8AISd-HXbH--9" value="&lt;font style=&quot;font-size: 16px;&quot;&gt;Non-CPP Sequences&amp;nbsp;&lt;/font&gt;&lt;span style=&quot;font-size: 16px; background-color: initial;&quot;&gt;(1150)&lt;/span&gt;" style="text;html=1;align=center;verticalAlign=middle;whiteSpace=wrap;rounded=0;fontSize=16;fontFamily=Times New Roman;" parent="1" vertex="1">
          <mxGeometry x="466.25" y="186" width="135.5" height="30" as="geometry" />
        </mxCell>
        <mxCell id="-tW9xtRan8AISd-HXbH--10" value="" style="endArrow=classic;html=1;rounded=0;strokeWidth=2;" parent="1" edge="1">
          <mxGeometry width="50" height="50" relative="1" as="geometry">
            <mxPoint x="969" y="190" as="sourcePoint" />
            <mxPoint x="1011" y="190" as="targetPoint" />
          </mxGeometry>
        </mxCell>
        <mxCell id="-tW9xtRan8AISd-HXbH--11" value="" style="endArrow=classic;html=1;rounded=0;" parent="1" edge="1">
          <mxGeometry width="50" height="50" relative="1" as="geometry">
            <mxPoint x="1081" y="298" as="sourcePoint" />
            <mxPoint x="1123" y="298" as="targetPoint" />
          </mxGeometry>
        </mxCell>
        <mxCell id="-tW9xtRan8AISd-HXbH--14" style="edgeStyle=orthogonalEdgeStyle;rounded=0;orthogonalLoop=1;jettySize=auto;html=1;exitX=0.5;exitY=1;exitDx=0;exitDy=0;" parent="1" edge="1">
          <mxGeometry relative="1" as="geometry">
            <mxPoint x="1211.5" y="260" as="sourcePoint" />
            <mxPoint x="1211.5" y="260" as="targetPoint" />
          </mxGeometry>
        </mxCell>
        <mxCell id="-tW9xtRan8AISd-HXbH--18" value="" style="endArrow=classic;html=1;rounded=0;entryX=0.5;entryY=0;entryDx=0;entryDy=0;edgeStyle=orthogonalEdgeStyle;curved=1;exitX=0.5;exitY=1;exitDx=0;exitDy=0;exitPerimeter=0;strokeWidth=2;" parent="1" source="--1Hs2VlBdWaXlPGqsg5-1" target="uXqc2PzN22cQrvF3PHkr-1" edge="1">
          <mxGeometry width="50" height="50" relative="1" as="geometry">
            <mxPoint x="532" y="380" as="sourcePoint" />
            <mxPoint x="479" y="434" as="targetPoint" />
          </mxGeometry>
        </mxCell>
        <mxCell id="-tW9xtRan8AISd-HXbH--44" value="" style="group" parent="1" vertex="1" connectable="0">
          <mxGeometry x="594" y="517" width="190" height="170" as="geometry" />
        </mxCell>
        <mxCell id="-tW9xtRan8AISd-HXbH--40" value="" style="rounded=1;whiteSpace=wrap;html=1;fillColor=#E6E6E6;" parent="-tW9xtRan8AISd-HXbH--44" vertex="1">
          <mxGeometry width="190" height="170" as="geometry" />
        </mxCell>
        <mxCell id="-tW9xtRan8AISd-HXbH--38" value="&lt;div style=&quot;text-align: left;&quot;&gt;&lt;font size=&quot;1&quot; style=&quot;&quot; face=&quot;Times New Roman&quot;&gt;&lt;span style=&quot;background-color: rgb(103, 171, 159);&quot;&gt;&lt;b style=&quot;font-size: 22px;&quot;&gt;ProtBert&lt;/b&gt;&lt;/span&gt;&lt;/font&gt;&lt;/div&gt;" style="rounded=1;whiteSpace=wrap;html=1;rotation=0;strokeColor=default;fillColor=#67AB9F;" parent="-tW9xtRan8AISd-HXbH--44" vertex="1">
          <mxGeometry x="10" y="62.5" width="170" height="45" as="geometry" />
        </mxCell>
        <mxCell id="-tW9xtRan8AISd-HXbH--41" value="&lt;font color=&quot;#67ab9f&quot; style=&quot;font-size: 28px;&quot; face=&quot;Times New Roman&quot;&gt;Generator&lt;/font&gt;" style="text;strokeColor=none;fillColor=none;html=1;fontSize=28;fontStyle=1;verticalAlign=middle;align=center;" parent="-tW9xtRan8AISd-HXbH--44" vertex="1">
          <mxGeometry x="10" y="129" width="170" height="40" as="geometry" />
        </mxCell>
        <mxCell id="xMJyWhix80kRw60ciq4o-4" value="" style="edgeStyle=orthogonalEdgeStyle;rounded=0;orthogonalLoop=1;jettySize=auto;html=1;entryX=0;entryY=0.5;entryDx=0;entryDy=0;strokeWidth=2;" parent="1" source="xMJyWhix80kRw60ciq4o-3" target="-tW9xtRan8AISd-HXbH--40" edge="1">
          <mxGeometry relative="1" as="geometry" />
        </mxCell>
        <mxCell id="xMJyWhix80kRw60ciq4o-3" value="&lt;font face=&quot;Times New Roman&quot; style=&quot;font-size: 20px;&quot;&gt;&lt;b style=&quot;font-size: 20px;&quot;&gt;Z&lt;/b&gt;&lt;/font&gt;" style="ellipse;whiteSpace=wrap;html=1;aspect=fixed;fillColor=#917457;fontSize=20;" parent="1" vertex="1">
          <mxGeometry x="486.5" y="574.5" width="55" height="55" as="geometry" />
        </mxCell>
        <mxCell id="xMJyWhix80kRw60ciq4o-12" value="&lt;font style=&quot;font-size: 20px;&quot;&gt;&lt;font style=&quot;font-size: 20px;&quot; face=&quot;Times New Roman&quot;&gt;&lt;b style=&quot;font-size: 20px;&quot;&gt;&lt;i style=&quot;font-size: 20px;&quot;&gt;Y&lt;/i&gt;&lt;/b&gt;&lt;/font&gt;&lt;font face=&quot;Times New Roman&quot; style=&quot;font-size: 20px;&quot;&gt;&lt;i style=&quot;font-size: 20px;&quot;&gt;&lt;sub style=&quot;font-size: 20px;&quot;&gt;fake&lt;/sub&gt;&lt;/i&gt;&lt;/font&gt;&lt;/font&gt;" style="ellipse;whiteSpace=wrap;html=1;aspect=fixed;fillColor=#CDE3B6;fontSize=20;" parent="1" vertex="1">
          <mxGeometry x="480.5" y="681.5" width="55.5" height="55.5" as="geometry" />
        </mxCell>
        <mxCell id="e5jdOWNTls_i8GQfZwCJ-1" value="" style="edgeStyle=orthogonalEdgeStyle;rounded=0;orthogonalLoop=1;jettySize=auto;html=1;strokeWidth=2;" parent="1" source="uXqc2PzN22cQrvF3PHkr-1" target="xMJyWhix80kRw60ciq4o-3" edge="1">
          <mxGeometry relative="1" as="geometry" />
        </mxCell>
        <mxCell id="e5jdOWNTls_i8GQfZwCJ-4" value="&lt;font style=&quot;font-size: 20px;&quot;&gt;&lt;font face=&quot;Times New Roman&quot; style=&quot;font-size: 20px;&quot;&gt;&lt;b style=&quot;font-size: 20px;&quot;&gt;&lt;i style=&quot;font-size: 20px;&quot;&gt;X&lt;/i&gt;&lt;/b&gt;&lt;/font&gt;&lt;font style=&quot;font-size: 20px;&quot; face=&quot;Times New Roman&quot;&gt;&lt;i style=&quot;font-size: 20px;&quot;&gt;&lt;sub style=&quot;font-size: 20px;&quot;&gt;fake&lt;/sub&gt;&lt;/i&gt;&lt;/font&gt;&lt;/font&gt;" style="ellipse;whiteSpace=wrap;html=1;aspect=fixed;fillColor=#CDE3B6;fontSize=20;" parent="1" vertex="1">
          <mxGeometry x="815" y="574.5" width="55" height="55" as="geometry" />
        </mxCell>
        <mxCell id="e5jdOWNTls_i8GQfZwCJ-5" value="" style="edgeStyle=orthogonalEdgeStyle;rounded=0;orthogonalLoop=1;jettySize=auto;html=1;strokeWidth=2;" parent="1" source="-tW9xtRan8AISd-HXbH--40" target="e5jdOWNTls_i8GQfZwCJ-4" edge="1">
          <mxGeometry relative="1" as="geometry" />
        </mxCell>
        <mxCell id="e5jdOWNTls_i8GQfZwCJ-6" value="&lt;font style=&quot;font-size: 20px;&quot;&gt;&lt;font face=&quot;Times New Roman&quot; style=&quot;font-size: 20px;&quot;&gt;&lt;b style=&quot;font-size: 20px;&quot;&gt;&lt;i style=&quot;font-size: 20px;&quot;&gt;X&lt;/i&gt;&lt;/b&gt;&lt;/font&gt;&lt;font style=&quot;font-size: 20px;&quot; face=&quot;Times New Roman&quot;&gt;&lt;i style=&quot;font-size: 20px;&quot;&gt;&lt;sub style=&quot;font-size: 20px;&quot;&gt;real&lt;/sub&gt;&lt;/i&gt;&lt;/font&gt;&lt;/font&gt;" style="ellipse;whiteSpace=wrap;html=1;aspect=fixed;fillColor=#F19C99;fontSize=20;" parent="1" vertex="1">
          <mxGeometry x="815" y="407" width="55" height="55" as="geometry" />
        </mxCell>
        <mxCell id="e5jdOWNTls_i8GQfZwCJ-7" value="&lt;font style=&quot;font-size: 20px;&quot;&gt;&lt;font face=&quot;Times New Roman&quot; style=&quot;font-size: 20px;&quot;&gt;&lt;b style=&quot;font-size: 20px;&quot;&gt;&lt;i style=&quot;font-size: 20px;&quot;&gt;Y&lt;/i&gt;&lt;/b&gt;&lt;/font&gt;&lt;font style=&quot;font-size: 20px;&quot; face=&quot;Times New Roman&quot;&gt;&lt;i style=&quot;font-size: 20px;&quot;&gt;&lt;sub style=&quot;font-size: 20px;&quot;&gt;real&lt;/sub&gt;&lt;/i&gt;&lt;/font&gt;&lt;/font&gt;" style="ellipse;whiteSpace=wrap;html=1;aspect=fixed;fillColor=#F19C99;fontSize=20;" parent="1" vertex="1">
          <mxGeometry x="815" y="491" width="55" height="55" as="geometry" />
        </mxCell>
        <mxCell id="e5jdOWNTls_i8GQfZwCJ-32" value="&lt;font face=&quot;Times New Roman&quot; style=&quot;font-size: 20px;&quot;&gt;&lt;i style=&quot;font-size: 20px;&quot;&gt;&lt;b style=&quot;font-size: 20px;&quot;&gt;Y&lt;/b&gt;&lt;sub style=&quot;font-size: 20px;&quot;&gt;pred&lt;/sub&gt;&lt;/i&gt;&lt;/font&gt;" style="ellipse;whiteSpace=wrap;html=1;aspect=fixed;fillColor=#7C608A;fontSize=20;" parent="1" vertex="1">
          <mxGeometry x="1230" y="519.5" width="55" height="55" as="geometry" />
        </mxCell>
        <mxCell id="e5jdOWNTls_i8GQfZwCJ-33" value="" style="edgeStyle=orthogonalEdgeStyle;rounded=0;orthogonalLoop=1;jettySize=auto;html=1;strokeWidth=2;" parent="1" source="-tW9xtRan8AISd-HXbH--31" target="e5jdOWNTls_i8GQfZwCJ-32" edge="1">
          <mxGeometry relative="1" as="geometry" />
        </mxCell>
        <mxCell id="WFy3IM2rzasIuJmFbr-y-3" value="&lt;span style=&quot;color: rgb(31, 35, 40); text-align: start; background-color: rgb(246, 248, 250);&quot;&gt;&lt;font face=&quot;Times New Roman&quot; style=&quot;font-size: 24px;&quot;&gt;B&lt;/font&gt;&lt;/span&gt;" style="text;html=1;align=center;verticalAlign=middle;whiteSpace=wrap;rounded=0;fontStyle=1" parent="1" vertex="1">
          <mxGeometry x="1237" y="720" width="59" height="27" as="geometry" />
        </mxCell>
        <mxCell id="WFy3IM2rzasIuJmFbr-y-13" value="" style="shape=partialRectangle;whiteSpace=wrap;html=1;bottom=1;right=1;left=1;top=0;fillColor=none;routingCenterX=-0.5;rotation=-90;strokeWidth=2;" parent="1" vertex="1">
          <mxGeometry x="846.3200000000002" y="458.93" width="87.25" height="35.88" as="geometry" />
        </mxCell>
        <mxCell id="WFy3IM2rzasIuJmFbr-y-15" value="" style="endArrow=none;html=1;rounded=0;strokeWidth=2;" parent="1" edge="1">
          <mxGeometry width="50" height="50" relative="1" as="geometry">
            <mxPoint x="537" y="710" as="sourcePoint" />
            <mxPoint x="913" y="710" as="targetPoint" />
          </mxGeometry>
        </mxCell>
        <mxCell id="WFy3IM2rzasIuJmFbr-y-17" value="" style="endArrow=none;html=1;rounded=0;exitX=1;exitY=0.5;exitDx=0;exitDy=0;strokeWidth=2;" parent="1" edge="1">
          <mxGeometry width="50" height="50" relative="1" as="geometry">
            <mxPoint x="870" y="601.38" as="sourcePoint" />
            <mxPoint x="913" y="601.38" as="targetPoint" />
          </mxGeometry>
        </mxCell>
        <mxCell id="WFy3IM2rzasIuJmFbr-y-18" value="" style="endArrow=none;html=1;rounded=0;entryX=0;entryY=0.5;entryDx=0;entryDy=0;strokeWidth=2;" parent="1" edge="1">
          <mxGeometry width="50" height="50" relative="1" as="geometry">
            <mxPoint x="913" y="710" as="sourcePoint" />
            <mxPoint x="912.9999999999854" y="601" as="targetPoint" />
          </mxGeometry>
        </mxCell>
        <mxCell id="WFy3IM2rzasIuJmFbr-y-19" value="" style="edgeStyle=orthogonalEdgeStyle;rounded=0;orthogonalLoop=1;jettySize=auto;html=1;endArrow=none;endFill=0;strokeWidth=2;" parent="1" edge="1">
          <mxGeometry relative="1" as="geometry">
            <mxPoint x="907.8850000000002" y="476.8713377078516" as="sourcePoint" />
            <Array as="points">
              <mxPoint x="951" y="477" />
              <mxPoint x="951" y="560" />
            </Array>
            <mxPoint x="971" y="560" as="targetPoint" />
          </mxGeometry>
        </mxCell>
        <mxCell id="WFy3IM2rzasIuJmFbr-y-25" value="&lt;span style=&quot;color: rgb(31, 35, 40); font-weight: 600; text-align: start; background-color: rgb(246, 248, 250);&quot;&gt;&lt;font style=&quot;font-size: 24px;&quot; face=&quot;Times New Roman&quot;&gt;A&lt;/font&gt;&lt;/span&gt;" style="text;html=1;align=center;verticalAlign=middle;whiteSpace=wrap;rounded=0;" parent="1" vertex="1">
          <mxGeometry x="1237" y="364.5" width="60" height="27" as="geometry" />
        </mxCell>
        <mxCell id="Xuf36Zth4zG1dXNgR3IM-1" value="" style="endArrow=classic;html=1;rounded=0;strokeWidth=2;" parent="1" edge="1">
          <mxGeometry width="50" height="50" relative="1" as="geometry">
            <mxPoint x="969" y="249" as="sourcePoint" />
            <mxPoint x="1011" y="249" as="targetPoint" />
          </mxGeometry>
        </mxCell>
        <mxCell id="Xuf36Zth4zG1dXNgR3IM-2" value="" style="endArrow=classic;html=1;rounded=0;strokeWidth=2;" parent="1" edge="1">
          <mxGeometry width="50" height="50" relative="1" as="geometry">
            <mxPoint x="969" y="306" as="sourcePoint" />
            <mxPoint x="1011" y="306" as="targetPoint" />
          </mxGeometry>
        </mxCell>
        <mxCell id="ol5qkyPiT_zXSMPOeZVz-9" style="edgeStyle=orthogonalEdgeStyle;rounded=0;orthogonalLoop=1;jettySize=auto;html=1;entryX=0;entryY=0.5;entryDx=0;entryDy=0;strokeWidth=2;" parent="1" source="Xuf36Zth4zG1dXNgR3IM-3" target="-tW9xtRan8AISd-HXbH--4" edge="1">
          <mxGeometry relative="1" as="geometry">
            <Array as="points">
              <mxPoint x="1160" y="191" />
              <mxPoint x="1160" y="249" />
            </Array>
          </mxGeometry>
        </mxCell>
        <mxCell id="Xuf36Zth4zG1dXNgR3IM-3" value="&lt;span style=&quot;text-align: left; font-size: 20px;&quot;&gt;&lt;font style=&quot;font-size: 20px;&quot; face=&quot;Times New Roman&quot;&gt;&lt;b style=&quot;font-size: 20px;&quot;&gt;Result1&lt;/b&gt;&lt;/font&gt;&lt;/span&gt;" style="rounded=1;whiteSpace=wrap;html=1;rotation=0;strokeColor=default;fillColor=#D5E8D4;fontSize=20;" parent="1" vertex="1">
          <mxGeometry x="1008" y="168" width="125" height="45" as="geometry" />
        </mxCell>
        <mxCell id="ol5qkyPiT_zXSMPOeZVz-10" style="edgeStyle=orthogonalEdgeStyle;rounded=0;orthogonalLoop=1;jettySize=auto;html=1;entryX=0;entryY=0.5;entryDx=0;entryDy=0;strokeWidth=2;" parent="1" source="Xuf36Zth4zG1dXNgR3IM-4" target="-tW9xtRan8AISd-HXbH--4" edge="1">
          <mxGeometry relative="1" as="geometry" />
        </mxCell>
        <mxCell id="Xuf36Zth4zG1dXNgR3IM-4" value="&lt;span style=&quot;text-align: left; font-size: 20px;&quot;&gt;&lt;font face=&quot;Times New Roman&quot; style=&quot;font-size: 20px;&quot;&gt;&lt;b style=&quot;font-size: 20px;&quot;&gt;Result2&lt;/b&gt;&lt;/font&gt;&lt;/span&gt;" style="rounded=1;whiteSpace=wrap;html=1;rotation=0;strokeColor=default;fillColor=#9AC7BF;fontSize=20;" parent="1" vertex="1">
          <mxGeometry x="1008" y="227" width="125" height="45" as="geometry" />
        </mxCell>
        <mxCell id="ol5qkyPiT_zXSMPOeZVz-11" style="edgeStyle=orthogonalEdgeStyle;rounded=0;orthogonalLoop=1;jettySize=auto;html=1;entryX=0;entryY=0.5;entryDx=0;entryDy=0;strokeWidth=2;" parent="1" source="Xuf36Zth4zG1dXNgR3IM-5" target="-tW9xtRan8AISd-HXbH--4" edge="1">
          <mxGeometry relative="1" as="geometry">
            <Array as="points">
              <mxPoint x="1160" y="306" />
              <mxPoint x="1160" y="249" />
            </Array>
          </mxGeometry>
        </mxCell>
        <mxCell id="Xuf36Zth4zG1dXNgR3IM-5" value="&lt;span style=&quot;font-family: &amp;quot;Times New Roman&amp;quot;; text-align: left; font-size: 20px;&quot;&gt;&lt;font style=&quot;font-size: 20px;&quot;&gt;&lt;b style=&quot;font-size: 20px;&quot;&gt;Result3&lt;/b&gt;&lt;/font&gt;&lt;/span&gt;" style="rounded=1;whiteSpace=wrap;html=1;rotation=0;strokeColor=default;fillColor=#67AB9F;fontSize=20;" parent="1" vertex="1">
          <mxGeometry x="1008" y="283" width="125" height="45" as="geometry" />
        </mxCell>
        <mxCell id="Xuf36Zth4zG1dXNgR3IM-9" value="&lt;font color=&quot;#ff3333&quot; face=&quot;Times New Roman&quot; style=&quot;font-size: 20px;&quot;&gt;&lt;b style=&quot;font-size: 20px;&quot;&gt;Voting&lt;/b&gt;&lt;/font&gt;" style="text;html=1;align=center;verticalAlign=middle;whiteSpace=wrap;rounded=0;fontSize=20;" parent="1" vertex="1">
          <mxGeometry x="1164" y="218" width="60" height="30" as="geometry" />
        </mxCell>
        <mxCell id="Xuf36Zth4zG1dXNgR3IM-70" value="" style="group" parent="1" vertex="1" connectable="0">
          <mxGeometry x="131" y="102" width="320" height="648" as="geometry" />
        </mxCell>
        <mxCell id="Xuf36Zth4zG1dXNgR3IM-64" value="" style="rounded=1;whiteSpace=wrap;html=1;fillColor=none;strokeColor=#FFCC99;strokeWidth=2;" parent="Xuf36Zth4zG1dXNgR3IM-70" vertex="1">
          <mxGeometry x="52.664277180406216" y="90.13658536585366" width="245.63918757467144" height="430.24390243902434" as="geometry" />
        </mxCell>
        <mxCell id="Xuf36Zth4zG1dXNgR3IM-62" value="" style="rounded=1;whiteSpace=wrap;html=1;fillColor=none;strokeColor=#994C00;fontStyle=0;strokeWidth=2;" parent="Xuf36Zth4zG1dXNgR3IM-70" vertex="1">
          <mxGeometry x="62.48984468339307" y="98.74146341463415" width="245.63918757467144" height="431.2" as="geometry" />
        </mxCell>
        <mxCell id="Xuf36Zth4zG1dXNgR3IM-68" value="&lt;font face=&quot;Times New Roman&quot; style=&quot;font-size: 28px;&quot;&gt;&lt;b style=&quot;font-size: 28px;&quot;&gt;ProtBert Architecture&lt;/b&gt;&lt;/font&gt;" style="text;html=1;align=center;verticalAlign=middle;whiteSpace=wrap;rounded=0;fontSize=28;" parent="Xuf36Zth4zG1dXNgR3IM-70" vertex="1">
          <mxGeometry x="27.29032258064516" y="608" width="268.38709677419354" height="30" as="geometry" />
        </mxCell>
        <mxCell id="Xuf36Zth4zG1dXNgR3IM-69" value="&lt;font face=&quot;Times New Roman&quot; style=&quot;font-size: 28px;&quot;&gt;Transformer Encoder Layer&lt;/font&gt;" style="text;html=1;align=center;verticalAlign=middle;whiteSpace=wrap;rounded=0;fontStyle=1;rotation=-90;fontSize=28;" parent="Xuf36Zth4zG1dXNgR3IM-70" vertex="1">
          <mxGeometry x="-166.87" y="284.13" width="358.9" height="30" as="geometry" />
        </mxCell>
        <mxCell id="Xuf36Zth4zG1dXNgR3IM-55" value="" style="edgeStyle=orthogonalEdgeStyle;rounded=0;orthogonalLoop=1;jettySize=auto;html=1;strokeWidth=2;" parent="Xuf36Zth4zG1dXNgR3IM-70" source="Xuf36Zth4zG1dXNgR3IM-35" target="Xuf36Zth4zG1dXNgR3IM-44" edge="1">
          <mxGeometry relative="1" as="geometry" />
        </mxCell>
        <mxCell id="Xuf36Zth4zG1dXNgR3IM-46" value="" style="edgeStyle=orthogonalEdgeStyle;rounded=0;orthogonalLoop=1;jettySize=auto;html=1;strokeWidth=2;" parent="Xuf36Zth4zG1dXNgR3IM-70" source="Xuf36Zth4zG1dXNgR3IM-37" target="Xuf36Zth4zG1dXNgR3IM-38" edge="1">
          <mxGeometry relative="1" as="geometry" />
        </mxCell>
        <mxCell id="Xuf36Zth4zG1dXNgR3IM-37" value="&lt;font style=&quot;font-size: 22px;&quot; face=&quot;Times New Roman&quot;&gt;&lt;b&gt;Input&lt;/b&gt;&lt;/font&gt;&lt;div style=&quot;font-size: 22px;&quot;&gt;&lt;font style=&quot;font-size: 22px;&quot; face=&quot;Times New Roman&quot;&gt;&lt;b&gt;Embedding&lt;/b&gt;&lt;/font&gt;&lt;/div&gt;" style="rounded=0;whiteSpace=wrap;html=1;fillColor=#FFCE9F;" parent="Xuf36Zth4zG1dXNgR3IM-70" vertex="1">
          <mxGeometry x="131.76009557945042" y="536.6341463414634" width="117.90681003584228" height="57.36585365853659" as="geometry" />
        </mxCell>
        <mxCell id="Xuf36Zth4zG1dXNgR3IM-53" value="" style="edgeStyle=orthogonalEdgeStyle;rounded=0;orthogonalLoop=1;jettySize=auto;html=1;strokeWidth=2;" parent="Xuf36Zth4zG1dXNgR3IM-70" source="Xuf36Zth4zG1dXNgR3IM-38" target="Xuf36Zth4zG1dXNgR3IM-39" edge="1">
          <mxGeometry relative="1" as="geometry" />
        </mxCell>
        <mxCell id="Xuf36Zth4zG1dXNgR3IM-38" value="&lt;font face=&quot;Times New Roman&quot; style=&quot;font-size: 20px;&quot;&gt;Multi-head&lt;/font&gt;&lt;div style=&quot;font-size: 20px;&quot;&gt;&lt;span style=&quot;font-family: &amp;quot;Times New Roman&amp;quot;;&quot;&gt;&lt;font style=&quot;font-size: 20px;&quot;&gt;Attention&lt;/font&gt;&lt;/span&gt;&lt;br&gt;&lt;/div&gt;" style="rounded=1;whiteSpace=wrap;html=1;fillColor=#D4E1F5;" parent="Xuf36Zth4zG1dXNgR3IM-70" vertex="1">
          <mxGeometry x="103.75722819593787" y="419.990243902439" width="173.9125448028674" height="57.36585365853659" as="geometry" />
        </mxCell>
        <mxCell id="Xuf36Zth4zG1dXNgR3IM-60" style="edgeStyle=orthogonalEdgeStyle;rounded=0;orthogonalLoop=1;jettySize=auto;html=1;entryX=0.5;entryY=1;entryDx=0;entryDy=0;strokeWidth=2;" parent="Xuf36Zth4zG1dXNgR3IM-70" source="Xuf36Zth4zG1dXNgR3IM-39" target="Xuf36Zth4zG1dXNgR3IM-35" edge="1">
          <mxGeometry relative="1" as="geometry" />
        </mxCell>
        <mxCell id="Xuf36Zth4zG1dXNgR3IM-39" value="&lt;font style=&quot;font-size: 20px;&quot; face=&quot;Times New Roman&quot;&gt;Add &amp;amp; Norm&lt;/font&gt;" style="rounded=1;whiteSpace=wrap;html=1;fillColor=#FFF2CC;fontSize=20;" parent="Xuf36Zth4zG1dXNgR3IM-70" vertex="1">
          <mxGeometry x="103.75722819593787" y="348.7609756097561" width="173.9125448028674" height="37.287804878048775" as="geometry" />
        </mxCell>
        <mxCell id="Xuf36Zth4zG1dXNgR3IM-44" value="&lt;font style=&quot;font-size: 20px;&quot; face=&quot;Times New Roman&quot;&gt;&lt;b&gt;Output&lt;/b&gt;&lt;/font&gt;&lt;div style=&quot;font-size: 20px;&quot;&gt;&lt;font style=&quot;font-size: 20px;&quot; face=&quot;Times New Roman&quot;&gt;&lt;b&gt;Embedding&lt;/b&gt;&lt;/font&gt;&lt;/div&gt;" style="rounded=0;whiteSpace=wrap;html=1;fillColor=#FFCE9F;" parent="Xuf36Zth4zG1dXNgR3IM-70" vertex="1">
          <mxGeometry x="131.76009557945042" y="6" width="117.90681003584228" height="57.36585365853659" as="geometry" />
        </mxCell>
        <mxCell id="Xuf36Zth4zG1dXNgR3IM-43" value="&lt;font style=&quot;font-size: 20px;&quot; face=&quot;Times New Roman&quot;&gt;Add &amp;amp; Norm&lt;/font&gt;" style="rounded=1;whiteSpace=wrap;html=1;fillColor=#FFF2CC;" parent="Xuf36Zth4zG1dXNgR3IM-70" vertex="1">
          <mxGeometry x="103.75722819593787" y="104.9560975609756" width="173.9125448028674" height="37.287804878048775" as="geometry" />
        </mxCell>
        <mxCell id="Xuf36Zth4zG1dXNgR3IM-45" value="" style="group" parent="Xuf36Zth4zG1dXNgR3IM-70" vertex="1" connectable="0">
          <mxGeometry x="118.49557945041816" y="176.1853658536585" width="144.4358422939068" height="116.64390243902439" as="geometry" />
        </mxCell>
        <mxCell id="Xuf36Zth4zG1dXNgR3IM-35" value="" style="rounded=1;whiteSpace=wrap;html=1;strokeColor=#D5E8D4;fillColor=#D5E8D4;" parent="Xuf36Zth4zG1dXNgR3IM-45" vertex="1">
          <mxGeometry width="144.4358422939068" height="116.64390243902439" as="geometry" />
        </mxCell>
        <mxCell id="Xuf36Zth4zG1dXNgR3IM-18" value="" style="ellipse;whiteSpace=wrap;html=1;aspect=fixed;strokeColor=#FFFFFF;" parent="Xuf36Zth4zG1dXNgR3IM-45" vertex="1">
          <mxGeometry x="26.529032258064515" y="8.60487804878049" width="30.815391939210162" height="30.815391939210162" as="geometry" />
        </mxCell>
        <mxCell id="Xuf36Zth4zG1dXNgR3IM-19" value="" style="ellipse;whiteSpace=wrap;html=1;aspect=fixed;strokeColor=#FFFFFF;" parent="Xuf36Zth4zG1dXNgR3IM-45" vertex="1">
          <mxGeometry x="85.48243727598565" y="8.60487804878049" width="30.815391939210162" height="30.815391939210162" as="geometry" />
        </mxCell>
        <mxCell id="Xuf36Zth4zG1dXNgR3IM-20" value="" style="ellipse;whiteSpace=wrap;html=1;aspect=fixed;strokeColor=#FFFFFF;" parent="Xuf36Zth4zG1dXNgR3IM-45" vertex="1">
          <mxGeometry x="6.877897252090801" y="70.27317073170732" width="30.815391939210162" height="30.815391939210162" as="geometry" />
        </mxCell>
        <mxCell id="Xuf36Zth4zG1dXNgR3IM-21" value="" style="ellipse;whiteSpace=wrap;html=1;aspect=fixed;strokeColor=#FFFFFF;" parent="Xuf36Zth4zG1dXNgR3IM-45" vertex="1">
          <mxGeometry x="56.98829151732377" y="70.27317073170732" width="30.815391939210162" height="30.815391939210162" as="geometry" />
        </mxCell>
        <mxCell id="Xuf36Zth4zG1dXNgR3IM-22" value="" style="ellipse;whiteSpace=wrap;html=1;aspect=fixed;strokeColor=#FFFFFF;" parent="Xuf36Zth4zG1dXNgR3IM-45" vertex="1">
          <mxGeometry x="105.13357228195937" y="70.27317073170732" width="30.815391939210162" height="30.815391939210162" as="geometry" />
        </mxCell>
        <mxCell id="Xuf36Zth4zG1dXNgR3IM-25" value="" style="endArrow=none;html=1;rounded=0;exitX=0.5;exitY=0;exitDx=0;exitDy=0;strokeColor=#FFFFFF;" parent="Xuf36Zth4zG1dXNgR3IM-45" source="Xuf36Zth4zG1dXNgR3IM-20" edge="1">
          <mxGeometry width="50" height="50" relative="1" as="geometry">
            <mxPoint x="56.00573476702508" y="88.9170731707317" as="sourcePoint" />
            <mxPoint x="105.13357228195937" y="41.112195121951224" as="targetPoint" />
          </mxGeometry>
        </mxCell>
        <mxCell id="Xuf36Zth4zG1dXNgR3IM-26" value="" style="endArrow=none;html=1;rounded=0;exitX=0.5;exitY=0;exitDx=0;exitDy=0;strokeColor=#FFFFFF;" parent="Xuf36Zth4zG1dXNgR3IM-45" source="Xuf36Zth4zG1dXNgR3IM-21" edge="1">
          <mxGeometry width="50" height="50" relative="1" as="geometry">
            <mxPoint x="35.372043010752684" y="74.57560975609755" as="sourcePoint" />
            <mxPoint x="105.13357228195937" y="41.112195121951224" as="targetPoint" />
          </mxGeometry>
        </mxCell>
        <mxCell id="Xuf36Zth4zG1dXNgR3IM-27" value="" style="endArrow=none;html=1;rounded=0;exitX=0.5;exitY=0;exitDx=0;exitDy=0;strokeColor=#FFFFFF;" parent="Xuf36Zth4zG1dXNgR3IM-45" source="Xuf36Zth4zG1dXNgR3IM-22" edge="1">
          <mxGeometry width="50" height="50" relative="1" as="geometry">
            <mxPoint x="35.372043010752684" y="74.57560975609755" as="sourcePoint" />
            <mxPoint x="105.13357228195937" y="41.112195121951224" as="targetPoint" />
          </mxGeometry>
        </mxCell>
        <mxCell id="Xuf36Zth4zG1dXNgR3IM-28" value="" style="endArrow=none;html=1;rounded=0;exitX=0.5;exitY=0;exitDx=0;exitDy=0;strokeColor=#FFFFFF;" parent="Xuf36Zth4zG1dXNgR3IM-45" source="Xuf36Zth4zG1dXNgR3IM-22" edge="1">
          <mxGeometry width="50" height="50" relative="1" as="geometry">
            <mxPoint x="59.93596176821983" y="70.75121951219512" as="sourcePoint" />
            <mxPoint x="43.23249701314217" y="41.112195121951224" as="targetPoint" />
          </mxGeometry>
        </mxCell>
        <mxCell id="Xuf36Zth4zG1dXNgR3IM-29" value="" style="endArrow=none;html=1;rounded=0;exitX=0.5;exitY=0;exitDx=0;exitDy=0;entryX=0.5;entryY=1;entryDx=0;entryDy=0;strokeColor=#FFFFFF;" parent="Xuf36Zth4zG1dXNgR3IM-45" source="Xuf36Zth4zG1dXNgR3IM-21" target="Xuf36Zth4zG1dXNgR3IM-18" edge="1">
          <mxGeometry width="50" height="50" relative="1" as="geometry">
            <mxPoint x="131.6626045400239" y="80.31219512195122" as="sourcePoint" />
            <mxPoint x="46.180167264038225" y="46.84878048780488" as="targetPoint" />
          </mxGeometry>
        </mxCell>
        <mxCell id="Xuf36Zth4zG1dXNgR3IM-30" value="" style="endArrow=none;html=1;rounded=0;exitX=0.5;exitY=0;exitDx=0;exitDy=0;strokeColor=#FFFFFF;" parent="Xuf36Zth4zG1dXNgR3IM-45" source="Xuf36Zth4zG1dXNgR3IM-20" edge="1">
          <mxGeometry width="50" height="50" relative="1" as="geometry">
            <mxPoint x="36.35459976105137" y="75.53170731707317" as="sourcePoint" />
            <mxPoint x="40.28482676224611" y="41.112195121951224" as="targetPoint" />
          </mxGeometry>
        </mxCell>
        <mxCell id="Xuf36Zth4zG1dXNgR3IM-56" style="edgeStyle=orthogonalEdgeStyle;rounded=0;orthogonalLoop=1;jettySize=auto;html=1;entryX=0;entryY=0.5;entryDx=0;entryDy=0;strokeWidth=2;" parent="Xuf36Zth4zG1dXNgR3IM-70" source="Xuf36Zth4zG1dXNgR3IM-35" target="Xuf36Zth4zG1dXNgR3IM-43" edge="1">
          <mxGeometry relative="1" as="geometry">
            <Array as="points">
              <mxPoint x="191.2047789725209" y="319.59999999999997" />
              <mxPoint x="82.14097968936679" y="319.59999999999997" />
              <mxPoint x="82.14097968936679" y="123.60000000000001" />
            </Array>
          </mxGeometry>
        </mxCell>
        <mxCell id="Xuf36Zth4zG1dXNgR3IM-58" style="edgeStyle=orthogonalEdgeStyle;rounded=0;orthogonalLoop=1;jettySize=auto;html=1;entryX=0;entryY=0.5;entryDx=0;entryDy=0;strokeWidth=2;" parent="Xuf36Zth4zG1dXNgR3IM-70" edge="1">
          <mxGeometry relative="1" as="geometry">
            <mxPoint x="190.22222222222223" y="501.2585365853659" as="sourcePoint" />
            <mxPoint x="103.75722819593787" y="364.51746341463416" as="targetPoint" />
            <Array as="points">
              <mxPoint x="118.49557945041816" y="501.2585365853659" />
              <mxPoint x="82.14097968936679" y="501.2585365853659" />
              <mxPoint x="82.14097968936679" y="364.5365853658537" />
            </Array>
          </mxGeometry>
        </mxCell>
        <mxCell id="uXqc2PzN22cQrvF3PHkr-1" value="&lt;span style=&quot;font-family: &amp;quot;Times New Roman&amp;quot;; font-size: 20px;&quot;&gt;&lt;b&gt;Perturbation function&lt;/b&gt;&lt;/span&gt;" style="text;html=1;align=center;verticalAlign=middle;whiteSpace=wrap;rounded=0;strokeColor=#000000;fillColor=#D6C1AB;fontSize=20;" parent="1" vertex="1">
          <mxGeometry x="480.5" y="440" width="120.5" height="50" as="geometry" />
        </mxCell>
        <mxCell id="VXzXsz0aRIQGcnHehVQ1-1" value="" style="endArrow=classic;html=1;rounded=0;entryX=0;entryY=0.5;entryDx=0;entryDy=0;edgeStyle=orthogonalEdgeStyle;curved=1;strokeWidth=2;" parent="1" target="e5jdOWNTls_i8GQfZwCJ-6" edge="1">
          <mxGeometry width="50" height="50" relative="1" as="geometry">
            <mxPoint x="539" y="378" as="sourcePoint" />
            <mxPoint x="520" y="445" as="targetPoint" />
            <Array as="points">
              <mxPoint x="539" y="420" />
              <mxPoint x="661" y="420" />
              <mxPoint x="661" y="435" />
            </Array>
          </mxGeometry>
        </mxCell>
        <mxCell id="-tW9xtRan8AISd-HXbH--31" value="" style="rounded=1;whiteSpace=wrap;html=1;fillColor=#E6E6E6;" parent="1" vertex="1">
          <mxGeometry x="985" y="462" width="186" height="170" as="geometry" />
        </mxCell>
        <mxCell id="-tW9xtRan8AISd-HXbH--28" value="" style="edgeStyle=orthogonalEdgeStyle;rounded=0;orthogonalLoop=1;jettySize=auto;html=1;strokeWidth=2;" parent="1" source="-tW9xtRan8AISd-HXbH--24" target="-tW9xtRan8AISd-HXbH--26" edge="1">
          <mxGeometry relative="1" as="geometry" />
        </mxCell>
        <mxCell id="-tW9xtRan8AISd-HXbH--24" value="&lt;span style=&quot;text-align: left; background-color: rgb(103, 171, 159);&quot;&gt;&lt;font size=&quot;1&quot; face=&quot;Times New Roman&quot; style=&quot;&quot;&gt;&lt;b style=&quot;font-size: 20px;&quot;&gt;ProtBert&lt;/b&gt;&lt;/font&gt;&lt;/span&gt;" style="rounded=1;whiteSpace=wrap;html=1;rotation=0;strokeColor=default;fillColor=#67AB9F;" parent="1" vertex="1">
          <mxGeometry x="998" y="472" width="156" height="45" as="geometry" />
        </mxCell>
        <mxCell id="-tW9xtRan8AISd-HXbH--26" value="&lt;span style=&quot;text-align: left;&quot;&gt;&lt;font size=&quot;1&quot; style=&quot;&quot; face=&quot;Times New Roman&quot;&gt;&lt;b style=&quot;font-size: 20px;&quot;&gt;Sigmoid&lt;/b&gt;&lt;/font&gt;&lt;/span&gt;" style="rounded=1;whiteSpace=wrap;html=1;rotation=0;strokeColor=default;fillColor=#CCCCCC;" parent="1" vertex="1">
          <mxGeometry x="998" y="542" width="156" height="45" as="geometry" />
        </mxCell>
        <mxCell id="WFy3IM2rzasIuJmFbr-y-20" style="edgeStyle=orthogonalEdgeStyle;rounded=0;orthogonalLoop=1;jettySize=auto;html=1;strokeWidth=2;" parent="1" edge="1">
          <mxGeometry relative="1" as="geometry">
            <mxPoint x="915" y="670" as="sourcePoint" />
            <Array as="points">
              <mxPoint x="951" y="670" />
              <mxPoint x="951" y="560" />
            </Array>
            <mxPoint x="984" y="560" as="targetPoint" />
          </mxGeometry>
        </mxCell>
        <mxCell id="-tW9xtRan8AISd-HXbH--32" value="&lt;font color=&quot;#ea6b66&quot; style=&quot;font-size: 26px;&quot; face=&quot;Times New Roman&quot;&gt;Discriminator&lt;/font&gt;" style="text;strokeColor=none;fillColor=none;html=1;fontSize=24;fontStyle=1;verticalAlign=middle;align=center;" parent="1" vertex="1">
          <mxGeometry x="993" y="592" width="170" height="40" as="geometry" />
        </mxCell>
      </root>
    </mxGraphModel>
  </diagram>
</mxfile>
